<?xml version="1.0" encoding="utf-8"?>
<!-- Generator: Adobe Illustrator 23.0.1, SVG Export Plug-In . SVG Version: 6.00 Build 0)  -->
<svg version="1.1" id="Layer_1" xmlns="http://www.w3.org/2000/svg" xmlns:xlink="http://www.w3.org/1999/xlink" x="0px" y="0px"
	 viewBox="0 0 150 54" style="enable-background:new 0 0 150 54;" xml:space="preserve">
<style type="text/css">
	.st0{fill:#D59529;}
	.st1{fill:#FFFFFF;}
	.st2{fill:#F6B518;}
	.st3{fill:none;}
</style>
<g>
	<polygon class="st0" points="45,12.3 45,25.2 43.6,24.4 43.6,12.9 44,12.7 	"/>
	<polygon class="st1" points="48.8,14.3 48.8,27.2 45,25.2 45,12.3 	"/>
	<polygon class="st2" points="48.8,36.1 48.8,36.1 48.8,45.6 48.8,54.2 45,54.2 45,25.2 48.8,27.2 	"/>
	<polygon class="st1" points="15.5,4.4 15.5,18.9 8.9,22.5 8.9,7 	"/>
	<polygon class="st0" points="45,36.2 45,43.1 43.6,42.8 43.6,35.8 	"/>
	<path class="st0" d="M45,25.2v11l-1.4-0.4v-1c-1-0.2-1.9-0.4-2.9-0.6V22.9l0.5,0.3l2.4,1.3L45,25.2z"/>
	<path class="st2" d="M21.6,13.7l-3.2,1.8l-3.3,1.8l-2.9,1.6l-6.6,3.6L0,25.6v28.6l0.9,0l14.2-0.1h0.1l2.6,0l0.7,0l3.5,0v-0.4
		l0-14.8l-2.3-4.5l2.3-5.5V13.6L21.6,13.7z M6.6,32.3l0-2.2l5.6-2.3l2.9-1.2l0.7-0.3L15.7,31l-0.6,0.2l-2.9,1.1l-2.9,1l-2.7,1
		L6.6,32.3z M15.1,45l-8.5,0.5l0-3.5l8.5-1.5l0.2,0l0,4.4L15.1,45z"/>
	<polygon class="st0" points="45,43.1 45,54.2 43.6,54.2 43.6,42.8 	"/>
	<polygon class="st2" points="43.6,24.4 43.6,35.8 40.7,35 38.4,34.4 38.4,30 34.6,28.4 33.7,28.1 30.8,26.8 29.4,26.2 29.4,44.8 
		30.8,45 33.7,45.4 38.3,46 38.3,41.6 40.7,42.1 43.6,42.8 43.6,54.2 23.1,54.2 23.1,13.2 24.1,13.7 24.5,14 25.2,14.4 26.1,14.9 
		35.5,20 38.5,21.6 40.7,22.9 41.2,23.1 	"/>
	<polyline class="st3" points="22.8,25.2 22.8,53.7 22.8,54.2 	"/>
	<path class="st3" d="M48.8,24.3"/>
	<line class="st3" x1="43.6" y1="42.7" x2="43.6" y2="35.8"/>
	<line class="st3" x1="43.6" y1="24.4" x2="43.6" y2="22.7"/>
	<line class="st3" x1="51" y1="28.4" x2="48.8" y2="27.2"/>
	<line class="st3" x1="45" y1="25.2" x2="44" y2="24.7"/>
	<polygon class="st1" points="40.7,5.9 26.1,0 18.4,3.1 18.4,14.3 21.9,12.4 23.1,12.1 26.1,13.7 26.1,2.9 40.7,8.8 40.7,22.9 
		41.2,23.1 43.6,24.4 43.6,7.1 	"/>
</g>
<g>
	<g>
		<path class="st1" d="M53.9,30h1.4v12.3h7.5v1.2h-8.9V30z"/>
		<path class="st1" d="M64.5,30.2c0-0.5,0.4-1,1-1c0.6,0,1,0.4,1,0.9c0,0.6-0.4,1-1,1C65,31.1,64.5,30.7,64.5,30.2z M64.8,33.4h1.4
			v10.2h-1.4V33.4z"/>
		<path class="st1" d="M86.5,37.6v5.9h-1.4v-5.8c0-2.1-1.1-3.2-2.9-3.2c-2.1,0-3.4,1.4-3.4,3.7v5.3h-1.4v-5.8c0-2.1-1.1-3.2-2.9-3.2
			c-2,0-3.4,1.4-3.4,3.7v5.3H70V33.4h1.3v1.9c0.7-1.2,2-1.9,3.7-1.9c1.7,0,3,0.7,3.6,2.1c0.7-1.3,2.2-2.1,4-2.1
			C84.9,33.3,86.5,34.7,86.5,37.6z"/>
		<path class="st1" d="M89.9,30.2c0-0.5,0.4-1,1-1c0.6,0,1,0.4,1,0.9c0,0.6-0.4,1-1,1C90.3,31.1,89.9,30.7,89.9,30.2z M90.2,33.4
			h1.4v10.2h-1.4V33.4z"/>
		<path class="st1" d="M100.6,42.9c-0.5,0.5-1.3,0.7-2.1,0.7c-1.9,0-2.9-1.1-2.9-3v-6.1h-1.8v-1.2h1.8v-2.2h1.4v2.2h3.1v1.2h-3.1
			v6.1c0,1.2,0.6,1.9,1.7,1.9c0.6,0,1.1-0.2,1.5-0.5L100.6,42.9z"/>
		<path class="st1" d="M111.4,38.9H103c0.2,2.1,1.8,3.5,3.9,3.5c1.2,0,2.3-0.4,3.1-1.3l0.8,0.9c-0.9,1.1-2.3,1.7-3.9,1.7
			c-3.1,0-5.3-2.2-5.3-5.2c0-3,2.1-5.2,4.9-5.2c2.8,0,4.9,2.1,4.9,5.2C111.5,38.6,111.4,38.7,111.4,38.9z M103,37.8h7.1
			c-0.2-2-1.6-3.4-3.6-3.4C104.6,34.5,103.2,35.9,103,37.8z"/>
		<path class="st1" d="M123.4,29.2v14.3h-1.3v-2c-0.8,1.4-2.2,2.1-3.9,2.1c-2.9,0-5-2.1-5-5.2c0-3.1,2.1-5.2,5-5.2
			c1.6,0,3,0.7,3.8,2v-6.1H123.4z M122,38.4c0-2.4-1.6-4-3.7-4c-2.1,0-3.7,1.6-3.7,4c0,2.4,1.6,4,3.7,4
			C120.4,42.4,122,40.8,122,38.4z"/>
	</g>
	<g>
		<path class="st1" d="M53,10.8h6.2c3,0,4.4,1.5,4.4,3.3c0,1.3-0.7,2.3-1.7,2.7c0.9,0.3,2.1,1.2,2.1,2.8c0,2.1-1.5,3.7-4.7,3.7H53
			V10.8z M58.6,15.6c1,0,1.4-0.5,1.4-1.2c0-0.8-0.6-1.2-1.4-1.2h-2v2.4H58.6z M56.5,20.8h1.9c1.2,0,1.7-0.5,1.7-1.4
			c0-0.8-0.5-1.3-1.7-1.3h-1.9V20.8z"/>
		<path class="st1" d="M65.7,10.8h5.4c4,0,6.3,2.5,6.3,6.1c0,3.6-2.3,6.4-6.4,6.4h-5.3V10.8z M69.4,20.7h1.4c2,0,2.8-1.4,2.8-3.7
			c0-2.1-0.8-3.5-2.8-3.5h-1.5V20.7z"/>
		<path class="st1" d="M84.6,17.2V20h-5.4v-2.8H84.6z"/>
		<path class="st1" d="M98.2,19.2c-0.5,2.6-2.4,4.4-5.8,4.4c-4.1,0-6.1-2.8-6.1-6.4c0-3.5,2-6.6,6.3-6.6c3.7,0,5.4,2.1,5.6,4.3h-3.6
			c-0.2-0.9-0.7-1.7-2-1.7c-1.8,0-2.4,1.7-2.4,3.9c0,2,0.5,3.9,2.4,3.9c1.5,0,1.9-1.1,2-1.8H98.2z"/>
		<path class="st1" d="M112.3,17c0,3.5-2.1,6.5-6.4,6.5c-4.2,0-6.3-2.9-6.3-6.5c0-3.6,2.2-6.5,6.4-6.5C110,10.5,112.3,13.3,112.3,17
			z M103.4,17c0,2.3,0.8,3.9,2.6,3.9c1.9,0,2.5-1.7,2.5-3.8c0-2.3-0.7-3.9-2.6-3.9C104.2,13.2,103.4,14.7,103.4,17z"/>
		<path class="st1" d="M114.3,23.3V10.8h4.4c1.3,2.8,3.2,6.6,3.8,8.2h0.1c-0.1-1.3-0.2-3.5-0.2-5.5v-2.7h3.3v12.5h-4.2
			c-1.1-2.3-3.3-7-3.9-8.6h0c0.1,1.2,0.1,3.6,0.1,5.8v2.8H114.3z"/>
		<path class="st1" d="M131,19.5c0.2,1.1,1,1.6,2.2,1.6c1.1,0,1.6-0.4,1.6-1.1c0-0.8-0.6-1.1-2.5-1.6c-3.7-0.9-4.4-2.2-4.4-3.9
			c0-2.1,1.5-3.9,5-3.9c3.6,0,5.1,1.8,5.3,3.8h-3.5c-0.1-0.7-0.4-1.4-1.7-1.4c-0.8,0-1.4,0.3-1.4,1c0,0.7,0.5,0.9,2.4,1.4
			c3.9,1,4.6,2.4,4.6,4.1c0,2.4-1.8,4-5.5,4c-3.5,0-5.3-1.6-5.6-4H131z"/>
		<path class="st1" d="M142.8,13.5h-3.6v-2.7H150v2.7h-3.6v9.8h-3.7V13.5z"/>
	</g>
</g>
</svg>
