<svg height="512" viewBox="0 0 512 512" width="512" xmlns="http://www.w3.org/2000/svg"><g id="Flat"><path d="m416 64h-208v-40h136z" fill="#da9065"/><path d="m440 120h-232v-56h208z" fill="#ab693d"/><path d="m208 120h232v80h-232z" fill="#8c5428"/><path d="m304 120-24-56-72-40-72 40-24 56v80h192z" fill="#e04446"/><path d="m152 80h16v16h-16z" fill="#68737f"/><path d="m248 80h16v16h-16z" fill="#68737f"/><path d="m176 136h32v64h-32z" fill="#da9065"/><path d="m208 136h32v64h-32z" fill="#ab693d"/><path d="m200 48h16v16h-16z" fill="#68737f"/><path d="m440 120 48 32h-136l-48-32z" fill="#da9065"/><path d="m440 152h48v48h-48z" fill="#9f764a"/><path d="m304 120 48 32v48h-48z" fill="#ba8b5d"/><path d="m112 160h-24v-16h-16v16h-24v-16h-16v16h-8v16h8v24h16v-24h24v24h16v-24h24z" fill="#da9065"/><path d="m24 200h464v288h-464z" fill="#7ab355"/><g fill="#699949"><path d="m24 240h464v16h-464z"/><path d="m24 288h464v16h-464z"/><path d="m24 336h464v16h-464z"/><path d="m24 384h464v16h-464z"/><path d="m24 432h464v16h-464z"/><path d="m24 472h464v16h-464z"/></g><path d="m264 304h16v32h-16z" fill="#68737f"/><path d="m128 288h32l16 80h-48z" fill="#68737f"/><path d="m218 310.367h16v43.267h-16z" fill="#68737f" transform="matrix(.555 -.832 .832 .555 -175.603 335.883)"/><path d="m190.111 312h35.777v16h-35.777z" fill="#4f5761" transform="matrix(.447 -.894 .894 .447 -171.237 362.933)"/><path d="m184 408-16-64-40-24v88z" fill="#ce2337"/><path d="m288 336v72h-136v-40h80v-40z" fill="#e04446"/><circle cx="112" cy="392" fill="#68737f" r="48"/><path d="m112 448a56 56 0 1 1 56-56 56.06322 56.06322 0 0 1 -56 56zm0-96a40 40 0 1 0 40 40 40.04552 40.04552 0 0 0 -40-40z" fill="#4f5761"/><circle cx="112" cy="392" fill="#d4e4f0" r="16"/><path d="m187.44629 418.666-15.08594-5.332a64.05028 64.05028 0 0 0 -81.69435-81.69435l-5.332-15.085a80.051 80.051 0 0 1 102.11229 102.11135z" fill="#d6323f"/><circle cx="280" cy="408" fill="#68737f" r="32"/><path d="m280 448a40 40 0 1 1 40-40 40.04552 40.04552 0 0 1 -40 40zm0-64a24 24 0 1 0 24 24 24.0275 24.0275 0 0 0 -24-24z" fill="#4f5761"/><circle cx="280" cy="408" fill="#d4e4f0" r="8"/></g></svg>