<svg height="512" viewBox="0 0 512 512" width="512" xmlns="http://www.w3.org/2000/svg"><g id="Planting-5" data-name="Planting"><g id="Filled"><path d="m247.781 92.265c-13.375 14.316-33.134 17.591-58.04-5.679s-32.155-78.586-32.155-78.586 55.682 3.476 80.588 26.745 22.981 43.205 9.607 57.52z" fill="#81c784"/><path d="m302.958 131.9c13.9 17.683 36.606 23.023 68.576-2.1s47.2-88.88 47.2-88.88-65.549-.277-97.519 24.847-32.153 48.449-18.257 66.133z" fill="#81c784"/><path d="m214.77 186.258c-8.617 15.818-26.8 22.543-58.073 5.506s-55.184-67.2-55.184-67.2 55.112-7.119 86.387 9.917 35.486 35.959 26.87 51.777z" fill="#81c784"/><path d="m432 504a72 72 0 0 0 72-72c0-45.464-31.605-67.543-74.042-77.474a76.013 76.013 0 0 0 -73.958-58.526h-15.9c-16.347-29.616-47.878-48-84.1-48s-63.653 18.384-80 48h-20c-35.957 0-66.061 22.453-73.958 56-42.442 9.931-74.042 34.536-74.042 80a72 72 0 0 0 72 72z" fill="#9c7b70"/><path d="m504 432c0-45.464-31.605-67.543-74.042-77.474a76.139 76.139 0 0 0 -36.2-48.478 316.835 316.835 0 0 1 -180.811 197.952h219.053a72 72 0 0 0 72-72z" fill="#876559"/><path d="m253.726 450.274s-39.6-73.539 5.657-118.794l73.539-73.539 113.137 113.137-73.539 73.539c-45.491 45.491-118.794 5.657-118.794 5.657z" fill="#e2dbd5"/><path d="m310.294 393.706a24 24 0 0 1 0-33.941l101.824-101.824 33.941 33.941-101.824 101.824a24 24 0 0 1 -33.941 0z" fill="#d4ccc7"/><path d="m463.029 192.971a24 24 0 0 1 24 24v72a0 0 0 0 1 0 0h-48a0 0 0 0 1 0 0v-72a24 24 0 0 1 24-24z" fill="#f09b73" transform="matrix(.707 .707 -.707 .707 306.01 -256.833)"/><path d="m475.371 262.57a83.72 83.72 0 0 1 -57.791-10.091l-5.462 5.462 33.941 33.941z" fill="#e58b6c"/><circle cx="476" cy="212" fill="#f2bba5" r="12"/><circle cx="480" cy="240" fill="#f2bba5" r="8"/><circle cx="396" cy="292" fill="#efebe8" r="12"/><circle cx="400" cy="320" fill="#efebe8" r="8"/><path d="m384.824 353.117a176.451 176.451 0 0 1 -73.086 5.2l-1.444 1.444a24 24 0 0 0 33.941 33.941z" fill="#c6bab3"/><path d="m239.829 409.176a156.844 156.844 0 0 0 13.9 41.1s73.3 39.834 118.794-5.657l54.677-54.679a308.083 308.083 0 0 1 -187.371 19.236z" fill="#d4ccc7"/><path d="m279.159 416.182a40 40 0 0 0 -77.229-20.467 28 28 0 1 0 -13.93 52.285l88 24a28 28 0 0 0 3.159-55.818z" fill="#a1887f"/><path d="m201.464 143.238a107.682 107.682 0 0 1 -65.408 32.079c6.329 6.593 13.281 12.438 20.641 16.447 31.275 17.037 49.456 10.312 58.073-5.506 7.163-13.15 5.443-28.445-13.306-43.02z" fill="#66bb6a"/><path d="m398.346 94.889a108.332 108.332 0 0 1 -103.543 7.2c-2.112 11 1.306 21.088 8.155 29.8 13.9 17.683 36.606 23.022 68.576-2.1 10.845-8.515 19.766-21.484 26.812-34.9z" fill="#66bb6a"/><path d="m252.4 52.139a107.573 107.573 0 0 1 -68.691 27.791 57.349 57.349 0 0 0 6.032 6.656c24.906 23.27 44.665 20 58.04 5.679 9.905-10.602 13.519-24.288 4.619-40.126z" fill="#66bb6a"/><g fill="#c8e6c9"><circle cx="372" cy="60" r="12"/><circle cx="376" cy="88" r="8"/><circle cx="196" cy="28" r="12"/><circle cx="200" cy="56" r="8"/><circle cx="132.974" cy="140.003" r="12"/><circle cx="159.998" cy="148.35" r="8"/></g><circle cx="54.632" cy="403.029" fill="#bcaaa4" r="16"/><circle cx="80.814" cy="430.172" fill="#bcaaa4" r="10.667"/><path d="m289.025 419.216a99.97 99.97 0 0 1 -128.356-5.294 27.994 27.994 0 0 0 27.331 34.078l88 24a28 28 0 0 0 13.025-52.784z" fill="#9c7b70"/></g><g id="Outline"><path d="m372.52 286.227-33.943-33.944a8 8 0 0 0 -11.314 0c-77.421 77.649-74.735 74.218-79.439 80.121-6.643 8.335 6.028 18.108 12.512 9.972 3.843-4.822 1.794-2.152 72.584-73.123l28.287 28.287-16.744 16.743a8.01 8.01 0 0 0 5.657 13.657c5.977 0 2.994-.927 62-58.685l22.627 22.627-96.161 96.168a16.01 16.01 0 0 1 -24.753-20.034 8 8 0 1 0 -13.407-8.732c-13.656 20.969 1.2 49.435 26.838 49.434a31.931 31.931 0 0 0 22.633-9.351l56.565-56.567 28.285 28.284-67.884 67.883a65.081 65.081 0 0 1 -36.044 18.317 8 8 0 0 0 2.642 15.78 80.776 80.776 0 0 0 44.716-22.783l73.54-73.54a8 8 0 0 0 0-11.314l-33.942-33.941c70.8-70.8 34.5-34.506 84.852-84.855a31.789 31.789 0 0 0 9.373-22.631c0-28.731-34.717-42.538-54.627-22.627-45.28 45.279-7.207 7.204-84.853 84.854zm96.166-73.541a16 16 0 0 1 22.628 22.628l-45.255 45.255-22.628-22.628z"/><path d="m69.443 363.924c4.258-1.465 8.791-2.771 13.472-3.9 19.185.512 29.085 16.911 29.085 23.976a8 8 0 0 0 8 8c17.237 0 5.259-39.459-27.472-46.832 18.072-46.368 70.819-40.881 71.919-41.168a130.84 130.84 0 0 0 -4.447 32c0 7.718 8.7 8.308 8 8a8 8 0 0 0 8-7.991c0-.221.118-22.2 7.088-36.287 23.738-42.847 68.663-51.656 105.473-37.961a8 8 0 0 0 5.579-15 108.006 108.006 0 0 0 -30.14-6.456v-68.417l37.612-29.553c22.146 21.507 50.569 12.845 74.866-6.249 33.772-26.54 49.387-90.6 50.036-93.312a8 8 0 0 0 -7.748-9.858c-2.78-.012-68.723.016-102.5 26.557-23.654 18.589-39.122 43.665-24.4 70.166l-27.866 21.902a142.681 142.681 0 0 0 -10.233-53.973c16.418-17.71 17.774-42.6-10.131-68.669-26.697-24.942-83.161-28.734-85.552-28.883a8 8 0 0 0 -8.43 9.024c.311 2.374 7.928 58.45 34.625 83.392 16.209 15.143 36.371 24.979 56.206 15.226 11.241 30.988 6.289 52.28 7.515 86.876l-22.884-12.463c3.907-13.3 2.6-35.007-33.389-54.614-33.172-18.07-88.883-11.13-91.239-10.826a8 8 0 0 0 -6.2 11.376c1.021 2.144 25.406 52.714 58.579 70.783 22.791 12.414 48.555 17.568 64.812-2.548l30.321 16.511v27.547c-32.4 2.347-59.263 19.03-76.614 47.7-8.263.919-38.669-4.859-67.7 17.031a78.23 78.23 0 0 0 -28.149 40.346c-3.892 1.028-7.677 2.172-11.3 3.418a8 8 0 1 0 5.207 15.129zm256.713-291.871c22.027-17.31 62.7-21.671 81.934-22.768-5.6 18.425-19.43 56.879-41.5 74.221-16.354 12.852-36.4 22.344-52.233 8.815l58.584-46.03a8 8 0 0 0 -9.884-12.582l-58.374 45.865c-8.339-18.274 5.746-35.162 21.473-47.521zm-80.123 9.4a141.448 141.448 0 0 0 -32.911-39.595 8 8 0 0 0 -10.244 12.292 125.329 125.329 0 0 1 31.19 38.84c-13.4 7.079-27.8-1.907-38.866-12.245-16.422-15.345-24.651-47.336-27.923-63.689 16.539 2.154 49.012 8.193 65.434 23.535 12.433 11.615 22.162 26.293 13.32 40.858zm-35.525 92.666-40.682-22.159a8 8 0 0 0 -7.652 14.052l41.077 22.37c-8.735 8.274-23.06 7.07-42.727-3.643-20.294-11.054-37.751-38.217-46.259-53.228 17.226-.992 49.515-1.057 69.808 10 18.937 10.312 27.782 21.248 26.435 32.604z"/><path d="m488.31 374.046a8 8 0 0 0 -11.263 11.365c40.999 40.864 11.741 110.589-45.047 110.589h-352c-41.446 0-73.676-39.236-61.462-83.974a8 8 0 0 0 -15.438-4.213c-15.076 55.249 25.257 104.187 76.9 104.187h352a80.091 80.091 0 0 0 80-80c0-24.933-9.176-44.808-23.69-57.954z"/><path d="m276 464a8 8 0 0 0 -8 8c0 17.648 44 5.759 44-28a35.963 35.963 0 0 0 -24.043-33.967c2.162-50.822-66.418-69.442-90.28-24.706a36.034 36.034 0 0 0 -45.677 34.673c0 33.969 44 45.472 44 28a8 8 0 0 0 -8-8 20 20 0 1 1 9.943-37.35 8 8 0 0 0 11.6-4.48 32 32 0 0 1 61.783 16.383 8 8 0 0 0 6.939 9.579 20 20 0 0 1 -2.265 39.868z"/><circle cx="32" cy="376" r="8"/><circle cx="328" cy="344" r="8"/></g></g></svg>